<svg xmlns="http://www.w3.org/2000/svg" width="36.116" height="36.179" viewBox="0 0 36.116 36.179">
  <g id="Grupo_3" data-name="Grupo 3" transform="translate(-89.741 -154.962)">
    <path id="Trazado_1" data-name="Trazado 1" d="M105.193,433.582c-.037-.115-.136-.069-.208-.073a41.394,41.394,0,0,1-6.8-.918,18.758,18.758,0,0,1-6.047-2.3,5.131,5.131,0,0,1-2.166-2.389,3.12,3.12,0,0,1,.369-3.021,6.643,6.643,0,0,1,2.571-2.145,1.032,1.032,0,0,1,1.341.44,1.045,1.045,0,0,1-.335,1.4,13.473,13.473,0,0,0-1.168.784c-1.167.962-1.175,1.8,0,2.762a10.87,10.87,0,0,0,3.607,1.778,33.531,33.531,0,0,0,7.841,1.428,46.264,46.264,0,0,0,7.4-.014,28.946,28.946,0,0,0,9.432-2.1,6.828,6.828,0,0,0,2.122-1.362,1.354,1.354,0,0,0-.025-2.242,7.561,7.561,0,0,0-1.4-1,1.034,1.034,0,0,1-.5-1.084,1.045,1.045,0,0,1,.832-.856.935.935,0,0,1,.682.094,7.6,7.6,0,0,1,2.217,1.715,4.3,4.3,0,0,1,.9,1.833v.919a4.425,4.425,0,0,1-2.331,3.133A16.093,16.093,0,0,1,118.6,432.4a35.52,35.52,0,0,1-6.692,1.1c-.545.041-1.1.012-1.641.079h-.141c-.066-.063-.148-.026-.223-.036h-.677c-.076.01-.16-.027-.228.036h-.353a.915.915,0,0,0-.564,0h-.564a1.2,1.2,0,0,0-.635,0H106.6c-.067-.063-.151-.026-.227-.036H105.7c-.075.01-.158-.026-.225.036Z" transform="translate(0 -242.44)" fill="#6297b7"/>
    <path id="Trazado_2" data-name="Trazado 2" d="M271.644,538a.636.636,0,0,1,.635,0Z" transform="translate(-164.758 -346.862)" fill="#6297b7"/>
    <path id="Trazado_3" data-name="Trazado 3" d="M284.365,538.03a.526.526,0,0,1,.564,0Z" transform="translate(-176.28 -346.889)" fill="#6297b7"/>
    <path id="Trazado_4" data-name="Trazado 4" d="M256.679,538.107c.041-.122.135-.056.209-.058.024.012.033.025.025.038s-.015.02-.023.02Z" transform="translate(-151.203 -346.965)" fill="#6297b7"/>
    <path id="Trazado_5" data-name="Trazado 5" d="M260.171,538.172l.211,0c.025.012.034.024.026.038s-.015.021-.023.021h-.212c-.022-.013-.03-.026-.023-.04S260.164,538.172,260.171,538.172Z" transform="translate(-154.345 -347.092)" fill="#6297b7"/>
    <path id="Trazado_6" data-name="Trazado 6" d="M263.912,538.16h.21c.025.012.034.025.026.039s-.015.022-.023.022h-.212c-.023-.013-.03-.027-.023-.041S263.9,538.16,263.912,538.16Z" transform="translate(-157.733 -347.081)" fill="#6297b7"/>
    <path id="Trazado_7" data-name="Trazado 7" d="M266.376,538.153c0-.02,0-.041,0-.061.08-.008.163-.031.215.061Z" transform="translate(-159.984 -347.012)" fill="#6297b7"/>
    <path id="Trazado_8" data-name="Trazado 8" d="M294.092,538.157c.052-.091.135-.068.215-.061q.031.022.019.042c-.008.013-.015.019-.022.019Z" transform="translate(-185.09 -347.016)" fill="#6297b7"/>
    <path id="Trazado_9" data-name="Trazado 9" d="M296.337,538.223c0-.02,0-.041,0-.061h.21c.022.014.029.028.021.042s-.015.02-.023.02Z" transform="translate(-187.124 -347.082)" fill="#6297b7"/>
    <path id="Trazado_10" data-name="Trazado 10" d="M299.832,538.176l.211,0c.022.014.028.028.021.041s-.015.02-.023.02h-.212c-.024-.014-.031-.028-.022-.04S299.824,538.176,299.832,538.176Z" transform="translate(-190.264 -347.093)" fill="#6297b7"/>
    <path id="Trazado_11" data-name="Trazado 11" d="M303.574,538.048c.074,0,.168-.064.209.058h-.212q-.035-.021-.022-.04C303.557,538.054,303.565,538.048,303.574,538.048Z" transform="translate(-193.653 -346.965)" fill="#6297b7"/>
    <path id="Trazado_12" data-name="Trazado 12" d="M259.042,538.172a.451.451,0,0,1,0,.061H258.9c0-.02,0-.039,0-.059Z" transform="translate(-153.216 -347.092)" fill="#6297b7"/>
    <path id="Trazado_13" data-name="Trazado 13" d="M262.776,538.16c0,.021,0,.041,0,.062h-.141q0-.029,0-.059Z" transform="translate(-156.597 -347.081)" fill="#6297b7"/>
    <path id="Trazado_14" data-name="Trazado 14" d="M298.724,538.163c0,.019,0,.039,0,.059h-.141q0-.031,0-.062Z" transform="translate(-189.155 -347.081)" fill="#6297b7"/>
    <path id="Trazado_15" data-name="Trazado 15" d="M302.464,538.175c0,.019,0,.039,0,.058h-.141a.465.465,0,0,1,0-.061Z" transform="translate(-192.543 -347.092)" fill="#6297b7"/>
    <path id="Trazado_16" data-name="Trazado 16" d="M171.5,412.422c.366-.623.71-1.2,1.04-1.778a.251.251,0,0,1,.315-.135,13.7,13.7,0,0,1,3.9,1.263,4.3,4.3,0,0,1,1.121.843,2.085,2.085,0,0,1-.007,2.982,6.331,6.331,0,0,1-2.806,1.544,24.088,24.088,0,0,1-5.637.994,37.27,37.27,0,0,1-7.142-.136,17.945,17.945,0,0,1-5.669-1.429,4.5,4.5,0,0,1-1.35-.943,2.089,2.089,0,0,1,.012-3.059,6.207,6.207,0,0,1,2.486-1.412,19.165,19.165,0,0,1,2.377-.632.367.367,0,0,1,.481.2c.258.487.543.961.838,1.427.155.245.081.294-.169.333a13.287,13.287,0,0,0-3.71,1.04,4.038,4.038,0,0,0-.489.276c-.418.277-.421.333.014.608a9.4,9.4,0,0,0,3.129,1.113,27.453,27.453,0,0,0,4.751.564,32.366,32.366,0,0,0,7.886-.562,9.531,9.531,0,0,0,2.949-1c.69-.406.7-.432-.008-.843a11.161,11.161,0,0,0-3.535-1.121C172.031,412.512,171.789,412.473,171.5,412.422Z" transform="translate(-58.746 -231.451)" fill="#6297b7"/>
    <path id="Trazado_17" data-name="Trazado 17" d="M196.573,163.558a9.9,9.9,0,0,0-7.208-8.261c-.538-.146-1.1-.179-1.629-.335h-1.9c-.021.077-.086.061-.141.069a9.676,9.676,0,0,0-7.918,5.956,8.334,8.334,0,0,0-.6,5.307,21.027,21.027,0,0,0,1.359,3.882,95.7,95.7,0,0,0,5.933,10.993,2.667,2.667,0,0,0,4.7,0c.725-1.194,1.442-2.394,2.133-3.609a62.96,62.96,0,0,0,4.583-9.345A9.574,9.574,0,0,0,196.573,163.558Zm-9.764,4.542a3.958,3.958,0,1,1,3.961-3.934A3.971,3.971,0,0,1,186.809,168.1Z" transform="translate(-79.017)" fill="#6297b7"/>
  </g>
</svg>
